<svg xmlns="http://www.w3.org/2000/svg" viewBox="0 0 64 64" fill="currentColor">
  <!-- Chinese dragon -->
  <path d="M8 32c0-8 4-12 8-12s8 4 8 12c0 4-2 8-4 10 4 0 8 2 12 2s8-2 12-2c-2-2-4-6-4-10 0-8 4-12 8-12s8 4 8 12c0 6-3 10-6 12"/>
  <circle cx="16" cy="24" r="2"/>
  <circle cx="48" cy="24" r="2"/>
  <path d="M12 16c-2-4-4-8-4-10m40 10c2-4 4-8 4-10" stroke="currentColor" stroke-width="2" fill="none"/>
  <path d="M20 44c4 4 8 8 12 8s8-4 12-8" stroke="currentColor" stroke-width="3" fill="none"/>
</svg>
