<svg xmlns="http://www.w3.org/2000/svg" viewBox="0 0 64 64" fill="currentColor">
  <!-- Roman eagle (aquila) -->
  <path d="M32 12c-8 0-12 4-12 8v8l-4 4v8l4 4v8c0 4 4 8 12 8s12-4 12-8v-8l4-4v-8l-4-4v-8c0-4-4-8-12-8z"/>
  <circle cx="26" cy="20" r="2" fill="white"/>
  <circle cx="38" cy="20" r="2" fill="white"/>
  <path d="M20 32l-8 8m32-8l8 8M24 44l-6 8m28-8l6 8" stroke="currentColor" stroke-width="2" opacity="0.7"/>
  <path d="M28 24c2 2 4 2 6 0" fill="none" stroke="currentColor" stroke-width="2"/>
</svg>
