<svg xmlns="http://www.w3.org/2000/svg" viewBox="0 0 64 64" fill="none" stroke="currentColor" stroke-width="2" stroke-linecap="round" stroke-linejoin="round">
  <path d="M16 8 L48 8 C50 8, 52 10, 52 12 L52 52 C52 54, 50 56, 48 56 L16 56 C14 56, 12 54, 12 52 L12 12 C12 10, 14 8, 16 8 Z"/>
  <circle cx="32" cy="26" r="6"/>
  <path d="M26 26 L38 26 M32 20 L32 32"/>
  <line x1="12" y1="12" x2="12" y2="52"/>
  <line x1="24" y1="38" x2="40" y2="38"/>
  <line x1="24" y1="44" x2="40" y2="44"/>
  <line x1="24" y1="50" x2="36" y2="50"/>
</svg>
