<svg xmlns="http://www.w3.org/2000/svg" viewBox="0 0 64 64" fill="none" stroke="currentColor" stroke-width="2" stroke-linecap="round" stroke-linejoin="round">
  <path d="M16 12 C14 12, 12 14, 12 18 L12 46 C12 50, 14 52, 16 52 L48 52 C50 52, 52 50, 52 46 L52 18 C52 14, 50 12, 48 12 Z"/>
  <path d="M16 12 C16 8, 18 6, 20 6 L44 6 C46 6, 48 8, 48 12"/>
  <path d="M16 52 C16 56, 18 58, 20 58 L44 58 C46 58, 48 56, 48 52"/>
  <line x1="20" y1="20" x2="44" y2="20"/>
  <line x1="20" y1="28" x2="44" y2="28"/>
  <line x1="20" y1="36" x2="44" y2="36"/>
  <line x1="20" y1="44" x2="40" y2="44"/>
</svg>
