<svg xmlns="http://www.w3.org/2000/svg" viewBox="0 0 64 64" fill="none" stroke="currentColor" stroke-width="2" stroke-linecap="round" stroke-linejoin="round">
  <path d="M12 16 C12 12, 14 10, 18 10 L46 10 C50 10, 52 12, 52 16 L52 48 C52 52, 50 54, 46 54 L18 54 C14 54, 12 52, 12 48 Z"/>
  <path d="M12 16 C8 16, 6 18, 6 22 L6 42 C6 46, 8 48, 12 48"/>
  <path d="M52 16 C56 16, 58 18, 58 22 L58 42 C58 46, 56 48, 52 48"/>
  <line x1="20" y1="22" x2="44" y2="22"/>
  <line x1="20" y1="30" x2="44" y2="30"/>
  <line x1="20" y1="38" x2="44" y2="38"/>
</svg>
