<svg xmlns="http://www.w3.org/2000/svg" viewBox="0 0 64 64" fill="none" stroke="currentColor" stroke-width="2.5" stroke-linecap="round" stroke-linejoin="round">
  <path d="M14 10 L46 10 C48 10, 50 12, 50 14 L50 50 C50 52, 48 54, 46 54 L14 54 C12 54, 10 52, 10 50 L10 14 C10 12, 12 10, 14 10 Z"/>
  <path d="M10 14 C8 14, 6 16, 6 18 L6 46 C6 48, 8 50, 10 50"/>
  <line x1="22" y1="22" x2="42" y2="22" stroke-width="3"/>
  <line x1="22" y1="30" x2="42" y2="30"/>
  <line x1="22" y1="36" x2="38" y2="36"/>
  <line x1="22" y1="42" x2="40" y2="42"/>
</svg>
