<svg xmlns="http://www.w3.org/2000/svg" viewBox="0 0 64 64" fill="none">
  <!-- Theater masks icon -->
  <ellipse cx="22" cy="28" rx="14" ry="16" fill="currentColor" opacity="0.8"/>
  <ellipse cx="42" cy="28" rx="14" ry="16" fill="currentColor" opacity="0.8"/>
  <path d="M22 32c-4 0-6-2-6-4s2-4 6-4 6 2 6 4-2 4-6 4z" fill="currentColor" opacity="0.3"/>
  <path d="M42 32c-4 0-6-2-6-4s2-4 6-4 6 2 6 4-2 4-6 4z" fill="currentColor" opacity="0.3"/>
  <circle cx="18" cy="26" r="3" fill="currentColor"/>
  <circle cx="26" cy="26" r="3" fill="currentColor"/>
  <circle cx="38" cy="26" r="3" fill="currentColor"/>
  <circle cx="46" cy="26" r="3" fill="currentColor"/>
  <path d="M16 36c2 4 6 6 6 6s-4-2-6-6z" fill="currentColor" opacity="0.6"/>
  <path d="M48 36c-2 4-6 6-6 6s4-2 6-6z" fill="currentColor" opacity="0.6"/>
</svg>