<svg xmlns="http://www.w3.org/2000/svg" viewBox="0 0 64 64" fill="none">
  <!-- Lightbulb with neural network icon -->
  <path d="M32 8c-11 0-18 8-18 18 0 6 3 11 8 14v6h20v-6c5-3 8-8 8-14 0-10-7-18-18-18z" fill="currentColor" opacity="0.8"/>
  <rect x="24" y="46" width="16" height="6" rx="2" fill="currentColor" opacity="0.9"/>
  <rect x="26" y="52" width="12" height="4" rx="2" fill="currentColor"/>
  <!-- Neural network dots inside bulb -->
  <circle cx="26" cy="24" r="2" fill="currentColor" opacity="0.4"/>
  <circle cx="38" cy="24" r="2" fill="currentColor" opacity="0.4"/>
  <circle cx="32" cy="20" r="2" fill="currentColor" opacity="0.4"/>
  <circle cx="32" cy="32" r="2" fill="currentColor" opacity="0.4"/>
  <circle cx="26" cy="32" r="2" fill="currentColor" opacity="0.4"/>
  <circle cx="38" cy="32" r="2" fill="currentColor" opacity="0.4"/>
  <!-- Connection lines -->
  <path d="M26 24L32 20M32 20L38 24M26 24L32 32M38 24L32 32M26 32L32 32M38 32L32 32" stroke="currentColor" stroke-width="1" opacity="0.3"/>
  <!-- Rays -->
  <path d="M32 2v4M48 8l-3 3M56 26h-4M48 44l-3-3M16 8l3 3M8 26h4M16 44l3-3" stroke="currentColor" stroke-width="2" stroke-linecap="round" opacity="0.5"/>
</svg>
