<svg xmlns="http://www.w3.org/2000/svg" viewBox="0 0 64 64" fill="none">
  <!-- Dragon icon -->
  <path d="M48 20c0-8-6-12-12-12s-12 4-12 12c0 4 2 8 6 10v8l-8 4v8h8l4-6 4 6h8v-8l-8-4v-8c4-2 6-6 6-10z" fill="currentColor"/>
  <circle cx="30" cy="18" r="2" fill="currentColor" opacity="0.8"/>
  <circle cx="42" cy="18" r="2" fill="currentColor" opacity="0.8"/>
  <path d="M20 16l-8-8v16z" fill="currentColor" opacity="0.6"/>
  <path d="M52 16l8-8v16z" fill="currentColor" opacity="0.6"/>
  <path d="M28 42l-6 8h-4l4-8z" fill="currentColor" opacity="0.5"/>
  <path d="M44 42l6 8h4l-4-8z" fill="currentColor" opacity="0.5"/>
</svg>