<svg xmlns="http://www.w3.org/2000/svg" viewBox="0 0 64 64" fill="none">
  <!-- Leaf/plant icon -->
  <path d="M32 8C20 8 12 20 12 32s8 16 20 24c12-8 20-12 20-24S44 8 32 8z" fill="currentColor" opacity="0.6"/>
  <path d="M32 12c-8 0-14 8-14 16s6 12 14 18V12z" fill="currentColor"/>
  <path d="M32 12c8 0 14 8 14 16s-6 12-14 18V12z" fill="currentColor" opacity="0.8"/>
  <path d="M32 12v34" stroke="currentColor" stroke-width="2" opacity="0.5"/>
  <path d="M32 20c-6 0-10 4-10 8s4 8 10 12" stroke="currentColor" stroke-width="1.5" opacity="0.4" fill="none"/>
  <path d="M32 20c6 0 10 4 10 8s-4 8-10 12" stroke="currentColor" stroke-width="1.5" opacity="0.4" fill="none"/>
</svg>