<svg xmlns="http://www.w3.org/2000/svg" viewBox="0 0 64 64" fill="none">
  <!-- Scroll icon -->
  <rect x="16" y="12" width="32" height="40" rx="2" fill="currentColor" opacity="0.8"/>
  <path d="M16 12c-2 0-4 2-4 4v4h4V12z" fill="currentColor"/>
  <path d="M48 12c2 0 4 2 4 4v4h-4V12z" fill="currentColor"/>
  <path d="M16 48c-2 0-4-2-4-4v-4h4v8z" fill="currentColor"/>
  <path d="M48 48c2 0 4-2 4-4v-4h-4v8z" fill="currentColor"/>
  <line x1="22" y1="22" x2="42" y2="22" stroke="currentColor" stroke-width="2" opacity="0.5"/>
  <line x1="22" y1="28" x2="42" y2="28" stroke="currentColor" stroke-width="2" opacity="0.5"/>
  <line x1="22" y1="34" x2="38" y2="34" stroke="currentColor" stroke-width="2" opacity="0.5"/>
  <line x1="22" y1="40" x2="36" y2="40" stroke="currentColor" stroke-width="2" opacity="0.5"/>
</svg>