<svg xmlns="http://www.w3.org/2000/svg" viewBox="0 0 400 400">
  <defs>
    <linearGradient id="symGrad" x1="0%" y1="0%" x2="100%" y2="100%">
      <stop offset="0%" style="stop-color:#667eea;stop-opacity:1" />
      <stop offset="100%" style="stop-color:#764ba2;stop-opacity:1" />
    </linearGradient>
  </defs>

  
  <!-- Central disk -->
  <circle cx="200" cy="200" r="50" fill="url(#symGrad)" opacity="0.3" stroke="#667eea" stroke-width="3" />

  <!-- Human figure -->
  <circle cx="200" cy="180" r="15" fill="#f8f9fa" stroke="#333" stroke-width="2" />
  <rect x="195" y="195" width="10" height="40" rx="2" fill="#f8f9fa" stroke="#333" stroke-width="2" />

  <!-- Raised hand -->
  <line x1="200" y1="200" x2="200" y2="150" stroke="#333" stroke-width="3" />

  <!-- Ring in left hand -->
  <circle cx="190" cy="220" r="8" fill="none" stroke="#333" stroke-width="2" />

  <!-- Wings (simplified) -->
  <path d="M 150,200 Q 100,150 80,180 L 150,220 Z" fill="#667eea" opacity="0.7" />
  <path d="M 150,200 Q 100,180 80,200 L 150,230 Z" fill="#764ba2" opacity="0.6" />
  <path d="M 150,200 Q 100,210 80,220 L 150,240 Z" fill="#667eea" opacity="0.5" />

  <path d="M 250,200 Q 300,150 320,180 L 250,220 Z" fill="#667eea" opacity="0.7" />
  <path d="M 250,200 Q 300,180 320,200 L 250,230 Z" fill="#764ba2" opacity="0.6" />
  <path d="M 250,200 Q 300,210 320,220 L 250,240 Z" fill="#667eea" opacity="0.5" />

  <!-- Streamers -->
  <path d="M 180,250 Q 170,280 160,310" stroke="#667eea" stroke-width="3" fill="none" />
  <path d="M 220,250 Q 230,280 240,310" stroke="#764ba2" stroke-width="3" fill="none" />


  <text x="200" y="380" font-family="Arial, sans-serif" font-size="16" font-weight="bold" text-anchor="middle" fill="#333">Faravahar</text>
</svg>