<svg xmlns="http://www.w3.org/2000/svg" viewBox="0 0 64 64" fill="none" stroke="currentColor" stroke-width="2" stroke-linecap="round" stroke-linejoin="round">
  <!-- Hands creating/shaping -->
  <path d="M12 32 C12 32 12 28 16 28 L20 28 L20 24 C20 22 22 22 22 24 L22 28 L24 28 L24 22 C24 20 26 20 26 22 L26 28 L28 28 L28 24 C28 22 30 22 30 24 L30 36 C30 40 28 44 24 44 L20 44 C16 44 12 40 12 36 Z"/>

  <path d="M52 32 C52 32 52 28 48 28 L44 28 L44 24 C44 22 42 22 42 24 L42 28 L40 28 L40 22 C40 20 38 20 38 22 L38 28 L36 28 L36 24 C36 22 34 22 34 24 L34 36 C34 40 36 44 40 44 L44 44 C48 44 52 40 52 36 Z"/>

  <!-- Cosmic circle/sphere being formed -->
  <circle cx="32" cy="20" r="8"/>
  <path d="M24 20 L40 20 M32 12 L32 28"/>

  <!-- Energy/creation rays -->
  <path d="M32 8 L32 6 M24 12 L22 10 M40 12 L42 10"/>

  <!-- World/clay -->
  <circle cx="32" cy="52" r="6"/>
  <path d="M26 52 Q32 48 38 52 M28 54 Q32 56 36 54"/>
</svg>
