<svg xmlns="http://www.w3.org/2000/svg" viewBox="0 0 64 64" fill="none" stroke="currentColor" stroke-width="2" stroke-linecap="round" stroke-linejoin="round">
  <!-- Skull -->
  <path d="M32 12 C20 12 14 20 14 28 C14 32 16 36 18 38 L18 44 L24 44 L24 40 L28 40 L28 44 L36 44 L36 40 L40 40 L40 44 L46 44 L46 38 C48 36 50 32 50 28 C50 20 44 12 32 12 Z"/>
  <!-- Eye sockets -->
  <circle cx="24" cy="26" r="4"/>
  <circle cx="40" cy="26" r="4"/>
  <!-- Nose cavity -->
  <path d="M30 32 L32 35 L34 32"/>
  <!-- Scythe -->
  <path d="M48 48 L54 48 C56 48 56 46 54 44 L48 38 M48 38 L42 52"/>
</svg>
