<svg xmlns="http://www.w3.org/2000/svg" viewBox="0 0 64 64" fill="none" stroke="currentColor" stroke-width="2" stroke-linecap="round" stroke-linejoin="round">
  <!-- Grain/wheat stalks -->
  <path d="M22 54 L22 30"/>
  <path d="M18 34 L22 30 L26 34 M18 38 L22 34 L26 38 M18 42 L22 38 L26 42 M18 46 L22 42 L26 46 M18 50 L22 46 L26 50"/>

  <path d="M42 54 L42 30"/>
  <path d="M38 34 L42 30 L46 34 M38 38 L42 34 L46 38 M38 42 L42 38 L46 42 M38 46 L42 42 L46 46 M38 50 L42 46 L46 50"/>

  <!-- Cornucopia/horn of plenty -->
  <path d="M32 10 Q28 10 28 14 L30 26 Q30 30 34 30 Q38 30 38 26 L40 14 Q40 10 36 10"/>
  <!-- Fruits/abundance -->
  <circle cx="32" cy="18" r="3"/>
  <circle cx="28" cy="22" r="2"/>
  <circle cx="36" cy="22" r="2"/>

  <!-- Ground -->
  <path d="M14 54 L50 54"/>
</svg>
