<svg xmlns="http://www.w3.org/2000/svg" viewBox="0 0 64 64" fill="none" stroke="currentColor" stroke-width="2" stroke-linecap="round" stroke-linejoin="round">
  <!-- Flame -->
  <path d="M32 10 C32 10 24 20 24 30 C24 38 27 44 32 44 C37 44 40 38 40 30 C40 20 32 10 32 10 Z" fill="currentColor" opacity="0.2"/>
  <path d="M32 10 C32 10 24 20 24 30 C24 38 27 44 32 44 C37 44 40 38 40 30 C40 20 32 10 32 10 Z"/>

  <!-- Inner flame -->
  <path d="M32 18 C32 18 28 24 28 30 C28 34 29.5 37 32 37 C34.5 37 36 34 36 30 C36 24 32 18 32 18 Z"/>

  <!-- Fire base -->
  <path d="M20 50 Q24 46 28 50 T36 50 T44 50"/>
  <path d="M18 54 Q22 50 26 54 T34 54 T42 54 T50 54"/>

  <!-- Sparks -->
  <path d="M18 30 L16 28 M20 22 L18 20 M44 22 L46 20 M46 30 L48 28"/>
</svg>
