<svg xmlns="http://www.w3.org/2000/svg" viewBox="0 0 64 64" fill="none" stroke="currentColor" stroke-width="2" stroke-linecap="round" stroke-linejoin="round">
  <!-- Caduceus/Rod of Asclepius -->
  <path d="M32 10 L32 54"/>
  <!-- Snake wrapping around -->
  <path d="M32 16 C36 16 38 18 38 22 C38 26 36 28 32 28 C28 28 26 30 26 34 C26 38 28 40 32 40 C36 40 38 42 38 46 C38 50 36 52 32 52"/>
  <!-- Snake head -->
  <circle cx="32" cy="52" r="2" fill="currentColor"/>
  <path d="M30 52 L29 53 M34 52 L35 53"/>
  <!-- Wings at top -->
  <path d="M32 14 L26 10 L28 14 M32 14 L38 10 L36 14"/>
  <!-- Medical cross alternative -->
  <circle cx="32" cy="20" r="8"/>
  <path d="M32 14 L32 26 M26 20 L38 20"/>
</svg>
