<svg xmlns="http://www.w3.org/2000/svg" viewBox="0 0 64 64" fill="none" stroke="currentColor" stroke-width="2" stroke-linecap="round" stroke-linejoin="round">
  <!-- Scales of Justice -->
  <path d="M32 12 L32 52"/>
  <!-- Crossbar -->
  <path d="M14 20 L50 20"/>
  <!-- Left scale -->
  <path d="M14 20 L10 28 L18 28 Z"/>
  <path d="M10 28 L18 28 L18 30 L10 30 Z"/>
  <!-- Right scale -->
  <path d="M50 20 L46 28 L54 28 Z"/>
  <path d="M46 28 L54 28 L54 30 L46 30 Z"/>
  <!-- Chains -->
  <path d="M14 20 L14 24 M50 20 L50 24"/>
  <!-- Base -->
  <path d="M24 52 L40 52"/>
  <!-- Sword of Justice -->
  <path d="M32 12 L32 8 M30 8 L34 8 M30 6 L34 6"/>
  <!-- Book of Law at base -->
  <rect x="26" y="54" width="12" height="8" rx="1"/>
  <path d="M32 54 L32 62"/>
</svg>
