<svg xmlns="http://www.w3.org/2000/svg" viewBox="0 0 64 64" fill="none" stroke="currentColor" stroke-width="2" stroke-linecap="round" stroke-linejoin="round">
  <!-- Heart -->
  <path d="M32 50 C32 50 14 38 14 26 C14 20 18 16 23 16 C27 16 30 18 32 21 C34 18 37 16 41 16 C46 16 50 20 50 26 C50 38 32 50 32 50 Z" fill="currentColor" opacity="0.2"/>
  <path d="M32 50 C32 50 14 38 14 26 C14 20 18 16 23 16 C27 16 30 18 32 21 C34 18 37 16 41 16 C46 16 50 20 50 26 C50 38 32 50 32 50 Z"/>
  <!-- Sparkles -->
  <path d="M20 14 L20 10 M18 12 L22 12 M44 14 L44 10 M42 12 L46 12 M32 56 L32 52 M30 54 L34 54"/>
</svg>
