<svg xmlns="http://www.w3.org/2000/svg" viewBox="0 0 64 64" fill="none" stroke="currentColor" stroke-width="2" stroke-linecap="round" stroke-linejoin="round">
  <!-- Crescent moon -->
  <path d="M38 12 C28 12 20 20 20 32 C20 44 28 52 38 52 C34 52 28 46 28 32 C28 18 34 12 38 12 Z" fill="currentColor" opacity="0.3"/>
  <path d="M38 12 C28 12 20 20 20 32 C20 44 28 52 38 52 C34 52 28 46 28 32 C28 18 34 12 38 12 Z"/>
  <!-- Stars -->
  <path d="M46 20 L47 22 L49 22 L47.5 23.5 L48 25.5 L46 24 L44 25.5 L44.5 23.5 L43 22 L45 22 Z"/>
  <path d="M50 34 L50.5 35 L51.5 35 L50.75 35.75 L51 37 L50 36.25 L49 37 L49.25 35.75 L48.5 35 L49.5 35 Z"/>
  <path d="M44 44 L44.5 45 L45.5 45 L44.75 45.75 L45 47 L44 46.25 L43 47 L43.25 45.75 L42.5 45 L43.5 45 Z"/>
</svg>
