<svg xmlns="http://www.w3.org/2000/svg" viewBox="0 0 64 64" fill="none" stroke="currentColor" stroke-width="2" stroke-linecap="round" stroke-linejoin="round">
  <!-- Trident -->
  <path d="M32 10 L32 54"/>
  <path d="M24 10 L24 24 M32 10 L32 24 M40 10 L40 24"/>
  <path d="M22 10 L42 10"/>
  <!-- Waves -->
  <path d="M10 36 Q14 32 18 36 T26 36 T34 36 T42 36 T50 36 T58 36"/>
  <path d="M10 44 Q14 40 18 44 T26 44 T34 44 T42 44 T50 44 T58 44"/>
  <path d="M10 52 Q14 48 18 52 T26 52 T34 52 T42 52 T50 52 T58 52"/>
</svg>
