<svg xmlns="http://www.w3.org/2000/svg" viewBox="0 0 64 64" fill="none" stroke="currentColor" stroke-width="2" stroke-linecap="round" stroke-linejoin="round">
  <!-- Cloud -->
  <path d="M18 32 C18 28 20 26 23 26 C23 22 26 20 30 20 C32 16 36 14 40 16 C44 18 45 22 44 26 C47 26 50 28 50 32 C50 36 47 38 44 38 L20 38 C17 38 15 36 15 33 C15 32 16 32 18 32 Z"/>
  <!-- Lightning bolt -->
  <path d="M36 38 L32 46 L34 46 L30 56 L38 44 L35 44 L40 38 Z" fill="currentColor"/>
  <!-- Rain -->
  <path d="M22 42 L22 46 M28 40 L28 44 M42 42 L42 46"/>
</svg>
