<svg xmlns="http://www.w3.org/2000/svg" viewBox="0 0 64 64" fill="none" stroke="currentColor" stroke-width="2" stroke-linecap="round" stroke-linejoin="round">
  <!-- Sun circle -->
  <circle cx="32" cy="32" r="12" fill="currentColor" opacity="0.3"/>
  <circle cx="32" cy="32" r="12"/>
  <!-- Sun rays -->
  <path d="M32 8 L32 16 M32 48 L32 56 M8 32 L16 32 M48 32 L56 32"/>
  <path d="M14 14 L20 20 M44 44 L50 50 M50 14 L44 20 M20 44 L14 50"/>
  <!-- Inner rays -->
  <path d="M24 24 L22 22 M40 24 L42 22 M40 40 L42 42 M24 40 L22 42"/>
  <path d="M32 20 L32 18 M32 44 L32 46 M20 32 L18 32 M44 32 L46 32"/>
</svg>
