<svg xmlns="http://www.w3.org/2000/svg" viewBox="0 0 64 64" fill="none" stroke="currentColor" stroke-width="2" stroke-linecap="round" stroke-linejoin="round">
  <!-- Comedy/Tragedy masks combined -->
  <!-- Smiling mask -->
  <path d="M20 16 C14 16 10 20 10 26 L10 32 C10 36 12 38 16 38 L24 38 C28 38 30 36 30 32 L30 26 C30 20 26 16 20 16 Z"/>
  <circle cx="16" cy="26" r="2" fill="currentColor"/>
  <circle cx="24" cy="26" r="2" fill="currentColor"/>
  <path d="M14 32 Q20 36 26 32"/>

  <!-- Frowning mask -->
  <path d="M44 26 C38 26 34 30 34 36 L34 42 C34 46 36 48 40 48 L48 48 C52 48 54 46 54 42 L54 36 C54 30 50 26 44 26 Z"/>
  <circle cx="40" cy="36" r="2" fill="currentColor"/>
  <circle cx="48" cy="36" r="2" fill="currentColor"/>
  <path d="M38 44 Q44 40 50 44"/>

  <!-- Question mark -->
  <path d="M30 8 Q34 8 34 12 Q34 14 32 15 L32 18 M32 22 L32 23"/>
</svg>
