<svg xmlns="http://www.w3.org/2000/svg" viewBox="0 0 64 64" fill="none" stroke="currentColor" stroke-width="2" stroke-linecap="round" stroke-linejoin="round">
  <!-- Crossed swords -->
  <path d="M16 48 L48 16 M48 48 L16 16"/>
  <!-- Sword 1 blade and hilt -->
  <path d="M16 48 L14 50 M48 16 L50 14"/>
  <rect x="13" y="49" width="4" height="2" transform="rotate(-45 15 50)"/>
  <rect x="47" y="13" width="4" height="2" transform="rotate(-45 49 15)"/>
  <!-- Sword 2 blade and hilt -->
  <path d="M48 48 L50 50 M16 16 L14 14"/>
  <rect x="47" y="49" width="4" height="2" transform="rotate(45 49 50)"/>
  <rect x="13" y="13" width="4" height="2" transform="rotate(45 15 14)"/>
  <!-- Shield in center -->
  <path d="M32 22 L38 26 L38 34 C38 38 36 40 32 42 C28 40 26 38 26 34 L26 26 Z"/>
</svg>
