<svg xmlns="http://www.w3.org/2000/svg" viewBox="0 0 64 64" fill="none" stroke="currentColor" stroke-width="2" stroke-linecap="round" stroke-linejoin="round">
  <path d="M12 32 Q8 28, 10 24 L14 22 L16 26 L20 24 C24 22, 28 24, 32 28 L44 28 C48 28, 52 32, 52 36 L52 40 C52 44, 48 48, 44 48 L20 48 C16 48, 12 44, 12 40 Z"/>
  <circle cx="18" cy="34" r="2" fill="currentColor"/>
  <path d="M32 28 L36 18 L40 28"/>
  <path d="M44 28 L48 20 L50 28"/>
  <path d="M20 48 L18 54 M30 48 L30 54 M40 48 L42 54"/>
</svg>
