<svg xmlns="http://www.w3.org/2000/svg" viewBox="0 0 600 600">
  <defs>
    <style>
      .journey-bg { fill: #1a1a2e; }
      .journey-circle { fill: none; stroke: #7c3aed; stroke-width: 3; }
      .journey-stage { fill: #7c3aed; stroke: #fff; stroke-width: 2; }
      .journey-stage-active { fill: #ffd700; stroke: #fff; stroke-width: 2; }
      .journey-text { fill: #fff; font-family: Arial, sans-serif; font-size: 12px; text-anchor: middle; }
      .journey-title { fill: #7c3aed; font-family: Arial, sans-serif; font-size: 24px; font-weight: bold; text-anchor: middle; }
    </style>
  </defs>
  <rect class="journey-bg" width="600" height="600"/>
  <text class="journey-title" x="300" y="40">Orpheus' Journey</text>
  <text class="journey-text" x="300" y="65">Love Beyond Death</text>
  <circle class="journey-circle" cx="300" cy="320" r="220"/>
  
  <!-- Journey Stages -->
  <circle class="journey-stage" cx="300" cy="100" r="12"/>
  <text class="journey-text" x="300" y="85">Ordinary World</text>
  
  <circle class="journey-stage-active" cx="415" cy="140" r="12"/>
  <text class="journey-text" x="480" y="145">Call</text>
  
  <circle class="journey-stage-active" cx="495" cy="230" r="12"/>
  <text class="journey-text" x="545" y="235">Aid</text>
  
  <circle class="journey-stage-active" cx="520" cy="320" r="12"/>
  <text class="journey-text" x="565" y="320">Threshold</text>
  
  <circle class="journey-stage-active" cx="495" cy="410" r="12"/>
  <text class="journey-text" x="545" y="415">Tests</text>
  
  <circle class="journey-stage-active" cx="415" cy="500" r="12"/>
  <text class="journey-text" x="480" y="505">Approach</text>
  
  <circle class="journey-stage-active" cx="300" cy="540" r="12"/>
  <text class="journey-text" x="300" y="570">Ordeal</text>
  
  <circle class="journey-stage-active" cx="185" cy="500" r="12"/>
  <text class="journey-text" x="120" y="505">Reward</text>
  
  <circle class="journey-stage-active" cx="105" cy="410" r="12"/>
  <text class="journey-text" x="55" y="415">Road Back</text>
  
  <circle class="journey-stage-active" cx="80" cy="320" r="12"/>
  <text class="journey-text" x="35" y="320">Resurrection</text>
  
  <circle class="journey-stage-active" cx="105" cy="230" r="12"/>
  <text class="journey-text" x="55" y="235">Atonement</text>
  
  <circle class="journey-stage-active" cx="185" cy="140" r="12"/>
  <text class="journey-text" x="120" y="145">Return</text>
  
  <circle cx="300" cy="320" r="40" fill="#7c3aed" opacity="0.3"/>
  <text class="journey-text" x="300" y="335" font-size="40">🎵</text>
</svg>